<svg width="1759" height="497" viewBox="0 0 1759 497" fill="none" xmlns="http://www.w3.org/2000/svg">
<g clip-path="url(#clip0_215099_142)">
<path d="M1475.28 489.708L1656.94 460.478L1757.49 444.299L1701.27 385.507L1436.94 428.039L1445.27 455.577L1475.28 489.708Z" fill="#172B4D"/>
<path d="M1638.62 8.95481L1692.68 41.5089L1542.47 465.605L1475.28 489.708L1445.27 455.577L1436.94 428.04L1535.52 185.972L1559.46 163.785L1549.81 140.816L1594.16 27.567L1638.62 8.95481Z" fill="white"/>
<mask id="mask0_215099_142" style="mask-type:alpha" maskUnits="userSpaceOnUse" x="1436" y="8" width="257" height="482">
<path d="M1638.62 8.95481L1692.68 41.5089L1542.47 465.605L1475.28 489.708L1445.27 455.577L1436.94 428.04L1535.52 185.972L1559.46 163.785L1549.81 140.816L1594.16 27.567L1638.62 8.95481Z" fill="white"/>
</mask>
<g mask="url(#mask0_215099_142)">
<path d="M1527.77 228.931L1535.26 207.099L1556.3 203.943L1563.45 182.854L1542.63 185.974L1549.85 165.331L1529 168.228L1521.37 189.166L1513.58 210.587L1491.65 213.887L1483.3 236.086L1460.55 239.976L1451.67 263.177L1474.84 258.991L1497.59 255.1L1505.65 232.49L1527.77 228.931Z" fill="#C5E9DA"/>
<path d="M1549.18 225.256L1570.18 221.877L1577.08 200.6L1556.3 203.943L1549.18 225.256Z" fill="#36B37E"/>
<path d="M1519.87 251.059L1541.73 247.312L1549.18 225.257L1527.77 228.932L1519.87 251.059Z" fill="#36B37E"/>
<path d="M1534.12 269.849L1555.95 265.879L1563.14 243.637L1541.73 247.312L1534.12 269.849Z" fill="#172B4D"/>
<path d="M1511.88 274.115L1519.87 251.059L1497.59 255.101L1489.17 278.229L1480.62 302.064L1503.72 297.431L1526.4 293.094L1534.12 269.85L1511.88 274.115Z" fill="#172B4D"/>
<path d="M1570.26 162.506L1563.45 182.854L1583.82 179.805L1577.08 200.6L1597.45 197.551L1604 177.016L1610.18 157L1590.44 159.717L1596.88 139.888L1603.2 120.766L1583.62 123L1577.11 142.382L1556.93 145.171L1549.85 165.331L1570.26 162.506Z" fill="#36B37E"/>
<path d="M1563.59 125.307L1543.37 127.872L1536.26 147.809L1556.93 145.172L1563.59 125.307Z" fill="#172B4D"/>
<path d="M1635.3 135.081L1616.2 137.467L1610.18 157.001L1629.46 154.355L1635.3 135.081Z" fill="#36B37E"/>
<path d="M1570.18 221.877L1563.14 243.637L1584.11 240.034L1604.59 236.279L1611.04 215.074L1617.33 194.352L1597.45 197.551L1590.96 218.533L1570.18 221.877Z" fill="#36B37E"/>
<path d="M1570.2 284.671L1577.33 261.981L1555.95 265.88L1548.41 288.864L1570.2 284.671Z" fill="#36B37E"/>
<path d="M1518.3 316.857L1540.73 312.332L1548.41 288.864L1526.4 293.094L1518.3 316.857Z" fill="#36B37E"/>
<path d="M1536.26 147.809L1515.37 150.482L1507.67 170.974L1529 168.228L1536.26 147.809Z" fill="#36B37E"/>
</g>
<path d="M1638.62 8.95481L1475.28 489.708L1542.47 465.605L1692.68 41.5089L1638.62 8.95481Z" fill="#C5E9DA"/>
<path d="M1650.37 69.1731L1680.88 75.035L1673.59 95.231L1650.37 69.1731Z" fill="#172B4D"/>
<path d="M1638.62 8.95481L1692.68 41.5089L1542.47 465.605L1475.28 489.708L1445.27 455.577L1436.94 428.04L1535.52 185.972L1559.46 163.785L1549.81 140.816L1594.16 27.567L1638.62 8.95481Z" stroke="#36B37E" stroke-width="1.57158" stroke-miterlimit="10" stroke-linejoin="round"/>
<path d="M1580.39 179.899L1601.32 196.011L1573.39 200.506L1580.39 179.899Z" fill="white"/>
<path d="M1638.16 195.585L1601.32 196.012L1580.39 179.899L1559.46 163.786" stroke="#36B37E" stroke-width="1.57158" stroke-miterlimit="10" stroke-linejoin="round"/>
<path d="M1601.32 196.011L1573.39 200.505L1545.28 283.639" stroke="#36B37E" stroke-width="1.57158" stroke-miterlimit="10" stroke-linejoin="round"/>
<path d="M1673.59 95.2303L1627.12 42.891L1583.44 54.9604" stroke="#36B37E" stroke-width="1.57158" stroke-miterlimit="10" stroke-linejoin="round"/>
<path d="M1596.37 51.2758L1587.18 45.4212" stroke="#36B37E" stroke-width="1.57158" stroke-miterlimit="10" stroke-linejoin="round"/>
<path d="M1538.28 304.246L1502.02 268.369L1436.94 428.039L1445.27 455.577L1475.28 489.708L1538.28 304.246Z" fill="white" stroke="#36B37E" stroke-width="1.57158" stroke-miterlimit="10" stroke-linejoin="round"/>
<path d="M1593.34 324.492L1534.08 316.61L1529.33 295.603L1540.46 300.687L1593.34 324.492Z" fill="#172B4D"/>
</g>
<g clip-path="url(#clip1_215099_142)">
<path d="M276.599 386.792L178.961 391.078C178.6 391.078 178.059 391.26 177.697 391.621L145.137 424.148C144.775 424.51 144.593 425.051 144.591 425.773L145.961 456.81C145.958 457.893 146.858 458.794 148.122 458.612L231.876 449.473C232.418 449.291 232.96 449.11 233.322 448.749L251.433 421.294L251.614 421.114L278.396 390.038C279.301 388.773 278.224 386.609 276.599 386.792Z" fill="#172B4D"/>
<path d="M237.171 215.281L127.23 223.937L98.739 267.881L126.149 383.44L158.594 408.636L222.35 403.633L233.942 370.449L266.733 334.451L237.171 215.281Z" fill="white" stroke="#36B37E" stroke-width="1.55764" stroke-miterlimit="10" stroke-linejoin="round"/>
<path d="M233.942 370.449L175.867 267.162L237.171 215.281L266.733 334.451L233.942 370.449Z" fill="#C5E9DA" stroke="#36B37E" stroke-width="1.55764" stroke-miterlimit="10" stroke-linejoin="round"/>
<path d="M222.35 403.634L207.595 323.319L233.943 370.449L222.35 403.634Z" fill="white" stroke="#36B37E" stroke-width="1.55764" stroke-miterlimit="10" stroke-linejoin="round"/>
<path d="M98.7389 267.882L175.867 267.162" stroke="#36B37E" stroke-width="1.55764" stroke-miterlimit="10" stroke-linejoin="round"/>
<path d="M190.239 254.966L169.047 256.693L162.832 267.222L185.906 284.858L190.239 254.966Z" fill="#C5E9DA" stroke="#36B37E" stroke-width="1.55764" stroke-miterlimit="10" stroke-linejoin="round"/>
<mask id="mask1_215099_142" style="mask-type:alpha" maskUnits="userSpaceOnUse" x="88" y="201" width="147" height="80">
<path d="M144.707 244.643L159.134 248.954L168.722 239.016L182.426 243.328L172.839 252.905L186.363 257.037L176.956 266.795L163.251 262.844L149.185 258.893L139.055 269.013L124.267 265.063L113.775 275.544L98.2653 271.596L109.299 260.933L119.79 250.452L134.577 254.763L144.707 244.643Z" fill="#C5E9DA"/>
<path d="M154.836 234.884L164.604 225.126L178.309 229.438L168.722 239.016L154.836 234.884Z" fill="#36B37E"/>
<path d="M130.281 240.332L140.591 230.392L154.836 234.884L144.707 244.643L130.281 240.332Z" fill="#36B37E"/>
<path d="M125.985 225.901L136.295 215.962L150.72 220.634L140.591 230.392L125.985 225.901Z" fill="#36B37E"/>
<path d="M115.314 235.841L130.281 240.331L119.791 250.452L104.642 246.142L88.9534 241.652L99.9859 231.351L110.838 221.23L125.985 225.901L115.314 235.841Z" fill="#36B37E"/>
<path d="M195.59 247.46L182.426 243.327L191.652 233.75L178.309 229.438L187.715 220.041L200.698 224.354L213.319 228.668L204.635 238.063L217.257 242.016L229.699 246.149L221.196 255.364L208.573 251.412L199.347 260.989L186.363 257.037L195.59 247.46Z" fill="#5E78A5"/>
<path d="M212.33 264.94L203.465 274.517L190.301 270.746L199.347 260.988L212.33 264.94Z" fill="#36B37E"/>
<path d="M234.445 223.766L225.941 232.981L213.32 228.668L222.184 219.452L234.445 223.766Z" fill="#36B37E"/>
<path d="M164.605 225.126L150.72 220.634L160.307 211.056L170.074 201.659L183.598 206.152L196.76 211.006L187.715 220.041L174.192 215.548L164.605 225.126Z" fill="#36B37E"/>
<path d="M131.998 201.531L146.243 206.384L136.295 215.962L121.508 211.291L131.998 201.531Z" fill="#36B37E"/>
<path d="M95.5104 216.379L106.362 206.258L121.508 211.29L110.838 221.23L95.5104 216.379Z" fill="#36B37E"/>
<path d="M190.3 270.746L181.073 280.684L167.187 276.913L176.956 266.794L190.3 270.746Z" fill="#36B37E"/>
</mask>
<g mask="url(#mask1_215099_142)">
<path d="M126.71 224.457L236.268 216.184L186.532 256.951L168.101 258.395L161.698 268.327L98.4542 268.166L126.71 224.457Z" fill="#36B37E" stroke="#36B37E" stroke-width="1.55764" stroke-miterlimit="10" stroke-linejoin="round"/>
</g>
</g>
<path d="M462.531 401.423L466.543 393.079C466.644 392.867 466.817 392.698 467.031 392.601L527.722 365.067C528.017 364.933 528.359 364.951 528.639 365.114L558.96 382.795C559.73 383.245 559.571 384.402 558.708 384.627L481.934 404.634C481.82 404.664 481.701 404.674 481.583 404.662L463.334 402.852C462.643 402.783 462.23 402.049 462.531 401.423Z" fill="#172B4D"/>
<g clip-path="url(#clip2_215099_142)">
<path d="M466.165 336.843L449.146 382.929L468.987 396.127L526.574 368.775L544.238 345.003L501.732 331.713L466.165 336.843Z" fill="white" stroke="#36B37E" stroke-width="1.63467" stroke-miterlimit="10" stroke-linejoin="round"/>
<path d="M486.19 355.382L488.084 359.369L526.574 368.776L529.206 365.173L544.238 345.004L501.732 331.713L486.19 355.382Z" fill="#C5E9DA" stroke="#36B37E" stroke-width="1.63467" stroke-miterlimit="10" stroke-linejoin="round"/>
<path d="M501.732 331.714L488.342 353.817L449.146 382.93" fill="white"/>
<path d="M501.732 331.714L488.342 353.817L449.146 382.93" stroke="#36B37E" stroke-width="1.63467" stroke-miterlimit="10" stroke-linejoin="round"/>
<path d="M481.218 359.011L483.042 348.372L493.186 345.726L488.084 359.369L481.218 359.011Z" fill="#172B4D" stroke="#36B37E" stroke-width="1.63467" stroke-miterlimit="10" stroke-linejoin="round"/>
<path d="M526.573 368.776L488.083 359.369" stroke="#36B37E" stroke-width="1.63467" stroke-miterlimit="10" stroke-linejoin="round"/>
<path d="M513.259 365.509L519.948 360.16L519.224 367.019L514.104 370.717L513.259 365.509Z" fill="white" stroke="#36B37E" stroke-width="1.63467" stroke-miterlimit="10" stroke-linejoin="round"/>
<path d="M519.948 360.16L518.298 336.875" stroke="#36B37E" stroke-width="1.63467" stroke-miterlimit="10" stroke-linejoin="round"/>
<mask id="mask2_215099_142" style="mask-type:alpha" maskUnits="userSpaceOnUse" x="448" y="358" width="80" height="39">
<path d="M449.146 382.929L481.218 359.01L492.525 360.336L526.574 368.776L522.439 370.739L468.987 396.127L449.146 382.929Z" fill="white" stroke="#36B37E" stroke-width="1.63467" stroke-miterlimit="10" stroke-linejoin="round"/>
</mask>
<g mask="url(#mask2_215099_142)">
<path d="M482.142 370.535L486.535 361.209L496.322 360.859L500.434 351.893L491.104 352.252L495.4 343.199L485.797 343.462L481.501 352.515L476.835 361.744L466.775 361.998L462.013 371.499L451.584 371.928L446.355 381.876L456.969 381.36L467.31 380.746L472.169 370.973L482.142 370.535Z" fill="#36B37E"/>
<path d="M491.929 370.184L501.629 369.649L505.653 360.499L496.322 360.858L491.929 370.184Z" fill="#36B37E"/>
<path d="M477.466 380.22L487.535 379.51L491.929 370.184L482.141 370.534L477.466 380.22Z" fill="#C5E9DA"/>
<path d="M482.86 389.196L492.745 388.573L497.235 378.975L487.535 379.51L482.86 389.196Z" fill="#36B37E"/>
<path d="M472.792 389.907L477.466 380.221L467.31 380.747L462.45 390.52L457.397 400.838L467.835 399.952L478.176 399.339L482.861 389.196L472.792 389.907Z" fill="#36B37E"/>
<path d="M504.634 343.111L500.434 351.893L509.765 351.533L505.653 360.499L514.984 360.14L518.911 351.261L522.741 342.655L513.78 342.84L517.698 334.418L521.431 326.084L512.654 326.181L508.736 334.602L499.503 334.69L495.4 343.199L504.634 343.111Z" fill="#36B37E"/>
<path d="M501.629 369.649L497.235 378.975L506.751 378.528L516.178 377.896L520.202 368.746L524.13 359.867L514.984 360.139L510.959 369.29L501.629 369.649Z" fill="#36B37E"/>
<path d="M498.226 397.733L502.629 387.951L492.745 388.573L488.342 398.356L498.226 397.733Z" fill="#36B37E"/>
<path d="M473.492 409.481L483.658 408.498L488.342 398.356L478.176 399.338L473.492 409.481Z" fill="#36B37E"/>
</g>
</g>
<defs>
<clipPath id="clip0_215099_142">
<rect width="316.165" height="450.963" fill="white" transform="matrix(-0.987301 0.15886 0.15886 0.987301 1687.15 0)"/>
</clipPath>
<clipPath id="clip1_215099_142">
<rect width="236" height="261.092" fill="white" transform="matrix(-0.707463 0.706751 0.706751 0.707463 166.961 145)"/>
</clipPath>
<clipPath id="clip2_215099_142">
<rect width="105.273" height="67.1849" fill="white" transform="translate(432 352.165) rotate(-25.4057)"/>
</clipPath>
</defs>
</svg>
